PathFileType	4	(X/Y/Z)	/Users/niels/Desktop/University/Third Semester/Perception and Action/Exam/Gymnastics Motion Tracking/Code for Gym Tracking/Analyzed Data/Backflip/id2_2_pure_Sports2D/id2_2_pure_Sports2D_px_person00.trc
DataRate	CameraRate	NumFrames	NumMarkers	Units	OrigDataRate	OrigDataStartFrame	OrigNumFrames
59.925093632958806	59.925093632958806	9	22	m	59.925093632958806	30	241
Frame#	Time	Hip			RHip			RKnee			RAnkle			RBigToe			RSmallToe			RHeel			LHip			LKnee			LAnkle			LBigToe			LSmallToe			LHeel			Neck			Head			Nose			RShoulder			RElbow			RWrist			LShoulder			LElbow			LWrist		
		X1	Y1	Z1	X2	Y2	Z2	X3	Y3	Z3	X4	Y4	Z4	X5	Y5	Z5	X6	Y6	Z6	X7	Y7	Z7	X8	Y8	Z8	X9	Y9	Z9	X10	Y10	Z10	X11	Y11	Z11	X12	Y12	Z12	X13	Y13	Z13	X14	Y14	Z14	X15	Y15	Z15	X16	Y16	Z16	X17	Y17	Z17	X18	Y18	Z18	X19	Y19	Z19	X20	Y20	Z20	X21	Y21	Z21	X22	Y22	Z22
30	0.500625	1.0247110116494678	-0.5346972521575555	0.0	1.0201046066765458	-0.5348149677407598	0.0	1.0151798812588997	-0.632390456890837	0.0	0.994407447130194	-0.7229727475436843	0.0	1.0274944240232766	-0.7288065538512016	0.0	1.022642159735676	-0.7314639879170673	0.0	0.9905720106503395	-0.729977023848933	0.0	1.0266452250277263	-0.5350309428434069	0.0	1.0202981760211178	-0.6323936019318233	0.0	1.001294553939306	-0.7191058559738795	0.0	1.0348503637504745	-0.726690202972636	0.0	1.0270246628144388	-0.7223381258450186	0.0	0.9884938227342024	-0.725789274822681	0.0	1.0245834992358311	-0.39374066981288136	0.0	1.032187261633272	-0.34379687056484365	0.0	1.0486458147410758	-0.3701364721376875	0.0	1.0190865853688469	-0.40802118175504964	0.0	1.0489803350425047	-0.3451004854373026	0.0	1.0599620195030592	-0.28833567320607156	0.0	1.0271370581116326	-0.4092661361669745	0.0	1.0455268299569223	-0.36123210064461225	0.0	1.0514404413007201	-0.36188550433091926	0.0
31	0.5173125000000001	1.0247010939422914	-0.5347260034494851	0.0	1.0201815900139848	-0.5348491501981528	0.0	1.0152194981455092	-0.6324421148083721	0.0	0.9942802149965071	-0.7226622076730823	0.0	1.0273561517483023	-0.7284867815022946	0.0	1.0225304991134836	-0.7311655392197358	0.0	0.9905431057351698	-0.7295768066830379	0.0	1.026587115788863	-0.5350558126666305	0.0	1.0202113546544296	-0.6324464608339905	0.0	1.0011565775042581	-0.7188302467099269	0.0	1.0346126416926842	-0.7263271869543299	0.0	1.0268321283426316	-0.7220385857012775	0.0	0.9883450103147927	-0.7254433097729655	0.0	1.0245546024187269	-0.39433889321543	0.0	1.032398383365368	-0.34431989466240587	0.0	1.0486592894155728	-0.37084791149867463	0.0	1.01900185368017	-0.40841067758645266	0.0	1.0489288271849473	-0.34555672134930704	0.0	1.059903859818576	-0.2887520696270813	0.0	1.0271200508811298	-0.4096333968553311	0.0	1.0455916728809231	-0.3598896191609444	0.0	1.0514907007008352	-0.35005890308041193	0.0
32	0.534	1.024701080494565	-0.5347518328575099	0.0	1.0202845340192412	-0.5348693755472809	0.0	1.0152697445341634	-0.6325144708084836	0.0	0.9941656885529182	-0.7223908798649504	0.0	1.0272468871836344	-0.7281907255017118	0.0	1.0224282481754383	-0.7308765250632263	0.0	0.9905224891837192	-0.7291856333864896	0.0	1.0265267901940627	-0.535068611143907	0.0	1.0201044185207295	-0.6325195791783622	0.0	1.0009928517580522	-0.7185983734100082	0.0	1.0343808619676904	-0.7260073023702734	0.0	1.0266366283121402	-0.7217979197276891	0.0	0.9881754271376391	-0.725122107093073	0.0	1.0245237500603717	-0.39497965379180244	0.0	1.032659397692702	-0.344800115840439	0.0	1.0486962068046923	-0.37158704371726237	0.0	1.018928524579856	-0.4088138873990378	0.0	1.048878436883971	-0.34602672002044504	0.0	1.059877809061466	-0.2891774422495726	0.0	1.0270410368940326	-0.41001426060991253	0.0	1.0456590235330632	-0.35836335500988026	0.0	1.051541353647154	-0.33802130418219806	0.0
33	0.5506875	1.024714489924789	-0.5347938761534659	0.0	1.020407603301207	-0.5348936657437949	0.0	1.0153265072689865	-0.632622227080624	0.0	0.9940689723598267	-0.7221873285276188	0.0	1.0271719607584935	-0.7279475043687809	0.0	1.0223385294259066	-0.7306250975642353	0.0	0.9905012584674531	-0.7288350289811202	0.0	1.0264737101214552	-0.5350833907249524	0.0	1.0199855745356694	-0.632627429828896	0.0	1.0008127854638211	-0.7184318077523197	0.0	1.0341674251915987	-0.7257583901993236	0.0	1.0264517624422325	-0.7216363270650169	0.0	0.9879951478602083	-0.7248468314481018	0.0	1.0244974667681634	-0.3956306357245947	0.0	1.032955162045771	-0.3452156184486245	0.0	1.048761444544836	-0.37231917263109876	0.0	1.0188756549250786	-0.4092180608423746	0.0	1.0488290956464148	-0.346489683711192	0.0	1.0598860970393307	-0.28960009678848814	0.0	1.0269103090012512	-0.4104015114995397	0.0	1.0457253991653728	-0.35685683225703324	0.0	1.0515895482648752	-0.3267987147970681	0.0
34	0.5673750000000001	1.0247451539013372	-0.5348691110459919	0.0	1.0205404885985685	-0.5349377315913777	0.0	1.015384359403606	-0.6327755006215181	0.0	0.9939907996061239	-0.7220684442394643	0.0	1.0271326027902894	-0.7277704334894626	0.0	1.0222625709194166	-0.7304275201564666	0.0	0.990470949762655	-0.7285452007516002	0.0	1.0264357627688885	-0.5351137364552325	0.0	1.0198643218240866	-0.6327798529800995	0.0	1.0006271823391037	-0.7183428552792304	0.0	1.0339813667486386	-0.7255959834420136	0.0	1.0262884466882358	-0.721561511962152	0.0	0.9878161077712709	-0.7246314302560549	0.0	1.024481553157373	-0.39626123562579324	0.0	1.0332641531364861	-0.3455539734505737	0.0	1.0488525337459056	-0.3730111119439551	0.0	1.0188470004082382	-0.4096121043125711	0.0	1.0487812518438167	-0.3469294394460867	0.0	1.0599288388710573	-0.29001410879358747	0.0	1.026746074681296	-0.41078908538729336	0.0	1.0457893116023758	-0.35549547678826166	0.0	1.0516370331662466	-0.31697992340926906	0.0
35	0.5840625	1.0247942134739876	-0.5349882681476797	0.0	1.0206710636203777	-0.5350139326130197	0.0	1.0154360341128799	-0.6329788793840201	0.0	0.9939275542043017	-0.7220405325502965	0.0	1.0271276400710705	-0.7276594701476847	0.0	1.022201553367926	-0.7302897219368677	0.0	0.9904238207401154	-0.7283246942730435	0.0	1.0264168888918852	-0.5351737382881455	0.0	1.019748775098995	-0.6329811127436517	0.0	1.0004452250460782	-0.7183381652756948	0.0	1.0338266128688742	-0.7255248446380059	0.0	1.0261528815486345	-0.7215713026207227	0.0	0.987647193045345	-0.7244854011562648	0.0	1.02448035960279	-0.3968451904666088	0.0	1.0335604164852545	-0.3458171358156376	0.0	1.048963775420511	-0.37363493660819036	0.0	1.0188434344714532	-0.40998677116680926	0.0	1.048736345478554	-0.347338889893349	0.0	1.060003930376306	-0.29041748243880955	0.0	1.026571856571267	-0.41116953962567065	0.0	1.0458506032179504	-0.35434613436261647	0.0	1.0516896535748632	-0.30882749114776653	0.0
36	0.60075	1.0248588201186406	-0.5351526878086331	0.0	1.0207897946032922	-0.5351303464436168	0.0	1.0154727521308027	-0.6332309823585722	0.0	0.9938728052578785	-0.7221011422756269	0.0	1.0271538748700846	-0.7276065476490206	0.0	1.0221573140849294	-0.7302099581558525	0.0	0.9903539113779412	-0.7281720384227762	0.0	1.0264193273738145	-0.5352752810097613	0.0	1.0196458143874492	-0.6332294672963207	0.0	1.0002751479864491	-0.718418327377407	0.0	1.0337028775468693	-0.7255412482777354	0.0	1.0260471660014532	-0.7216541200910932	0.0	0.9874938181464098	-0.7244118022160783	0.0	1.0244968864380515	-0.3973636948925502	0.0	1.033817323992406	-0.34602129847577245	0.0	1.0490892902820352	-0.37416940538700827	0.0	1.0188660244166718	-0.41033439428610186	0.0	1.048697386033631	-0.34771891082450246	0.0	1.0601068064876824	-0.29080711465097775	0.0	1.0264132148162466	-0.4115328913178839	0.0	1.045909903211311	-0.35343353465554256	0.0	1.0517560198958746	-0.30237796463991995	0.0
37	0.6174375000000001	1.0249325747302014	-0.5353541092818787	0.0	1.0208922441195578	-0.5352880872942668	0.0	1.0154874756692733	-0.6335240819635362	0.0	0.993820595037344	-0.7222387143143041	0.0	1.027205174342569	-0.7275989798427954	0.0	1.0221309843967579	-0.7301796062775036	0.0	0.9902601488501862	-0.7280792630043289	0.0	1.0264456717622636	-0.5354226439129617	0.0	1.0195621281304508	-0.6335168141356919	0.0	1.0001248506756497	-0.7185743895073962	0.0	1.0336072233274758	-0.7256349987111466	0.0	1.025970604407885	-0.7217911653340086	0.0	0.9873592918253865	-0.7244042486891938	0.0	1.0245327399384687	-0.39780643941078203	0.0	1.0340124236079609	-0.3461910634649676	0.0	1.0492230200447037	-0.37460142323879614	0.0	1.0189169418062873	-0.4106482156866205	0.0	1.0486685533162314	-0.34807210077850553	0.0	1.0602299118339722	-0.29117414308447026	0.0	1.0262926410277773	-0.41186686137010625	0.0	1.0459681174125013	-0.352754225412638	0.0	1.051843258489581	-0.2975297934008999	0.0
38	0.634125	1.0250087338588432	-0.5355779991293144	0.0	1.0209788695364888	-0.5354793381040834	0.0	1.0154793601845369	-0.6338436605107782	0.0	0.9937688955966515	-0.7224321131163339	0.0	1.0272741519919686	-0.7276210785360355	0.0	1.022122476545289	-0.7301840787272903	0.0	0.9901489781005686	-0.7280354460813991	0.0	1.0264969241208843	-0.5356097114425867	0.0	1.0195042541081174	-0.6338282856843465	0.0	1.0000006967399833	-0.7187852792063689	0.0	1.0335353052026244	-0.7257893961307497	0.0	1.025920762918269	-0.7219605454747566	0.0	0.9872463417680443	-0.7244468019607958	0.0	1.024587962266996	-0.398170521525826	0.0	1.034132632282136	-0.3463508322362646	0.0	1.04935750259196	-0.3749286420626672	0.0	1.018998280778873	-0.4109220210479235	0.0	1.0486526963157023	-0.3483982505167192	0.0	1.060362658138605	-0.29150511708581717	0.0	1.0262233913915366	-0.41215924385653896	0.0	1.046025828406711	-0.3522877902284646	0.0	1.0519515321132138	-0.29411393501283895	0.0
